<svg width="26" height="25" viewBox="0 0 26 25" fill="none" xmlns="http://www.w3.org/2000/svg">
<path d="M12.81 0H14.0795L14.6264 0.0390625L15.2709 0.117188L15.935 0.234375L16.6186 0.390625L17.1459 0.546875L17.7905 0.761719L18.5131 1.05469L19.1577 1.36719L19.5287 1.5625L20.0561 1.875L20.7006 2.30469L20.935 2.48047L21.1889 2.67578L21.6186 3.02734L21.8725 3.26172L22.1069 3.47656L22.6928 4.0625L22.8295 4.21875L23.0639 4.49219L23.3178 4.80469L23.5522 5.11719L23.7866 5.44922L24.0014 5.78125L24.2944 6.26953L24.5483 6.73828L24.8022 7.24609L25.0366 7.79297L25.31 8.53516L25.5248 9.25781L25.6811 9.92188L25.7983 10.5469L25.8959 11.3086L25.935 11.7969V13.2422L25.8569 14.082L25.7592 14.707L25.6225 15.3906L25.4467 16.0547L25.2123 16.7578L25.0366 17.2266L24.8412 17.6758L24.6069 18.1641L24.3725 18.6133L24.06 19.1406L23.6694 19.7266L23.3959 20.0977L23.1811 20.3711L22.9467 20.6445L22.7709 20.8398L22.6342 20.9961L21.853 21.7773L21.6967 21.9141L21.4428 22.1289L20.8959 22.5586L20.5639 22.793L20.2123 23.0273L19.8608 23.2422L19.4506 23.4766L18.8842 23.7695L18.4155 23.9844L17.8295 24.2188L17.1459 24.4531L16.4428 24.6484L15.8178 24.7852L15.1342 24.9023L14.3725 24.9805L14.1186 25H12.8491L12.1264 24.9414L11.3061 24.8242L10.7006 24.707L9.9389 24.5117L9.33344 24.3164L8.80609 24.1211L8.29828 23.9062L7.81 23.6719L7.32172 23.418L6.89203 23.1641L6.52094 22.9297L6.1889 22.6953L5.81781 22.4219L5.50531 22.168L5.29047 21.9922L5.09515 21.8164L4.86078 21.6016L4.60687 21.3672L4.41156 21.1719L4.27484 21.0156L4.04047 20.7617L3.86469 20.5469L3.70844 20.3711L3.51312 20.1172L3.29828 19.8242L3.0639 19.4922L2.88812 19.2188L2.67328 18.8672L2.4389 18.457L2.14594 17.8906L1.89203 17.3242L1.65765 16.7188L1.44281 16.0742L1.2475 15.3516L1.11078 14.668L1.03265 14.1797L0.97406 13.6523L0.934998 12.9688V12.0703L0.97406 11.3867L1.05219 10.7227L1.14984 10.1562L1.28656 9.51172L1.48187 8.80859L1.73578 8.06641L1.91156 7.63672L2.16547 7.07031L2.4389 6.52344L2.71234 6.05469L3.00531 5.58594L3.27875 5.19531L3.55219 4.82422L3.76703 4.57031L3.92328 4.375L4.13812 4.14062L4.27484 3.98438L5.07562 3.18359L5.29047 3.00781L5.58344 2.75391L5.91547 2.5L6.22797 2.26562L6.52094 2.07031L6.79437 1.89453L7.14594 1.67969L7.59515 1.42578L7.92719 1.26953L8.23969 1.11328L8.64984 0.9375L9.15765 0.742188L9.86078 0.507812L10.4467 0.351562L11.0912 0.214844L11.8139 0.0976562L12.5366 0.0195312L12.81 0Z" fill="#0A2B40"/>
<path d="M13.1811 5.03906H13.6694L13.9428 5.07812L14.2358 5.15625L14.685 5.37109L15.0366 5.60547L15.4467 5.91797L15.7006 6.11328L16.2475 6.54297L16.9506 7.08984L17.7709 7.73438L18.1225 8.00781L18.9428 8.65234L19.6459 9.19922L19.9194 9.41406L20.1733 9.60938L20.4662 9.84375L20.8959 10.1953L21.1303 10.4102L21.3256 10.625L21.4623 10.8594L21.5405 11.0938L21.56 11.1914V13.7109L21.5014 13.9648L21.3452 14.2578L21.1303 14.4922L20.8569 14.7656L20.6616 14.9219L20.3491 15.1758L20.017 15.4297L19.7436 15.6445L19.392 15.918L19.1186 16.1328L18.8647 16.3281L18.5522 16.582L18.2202 16.8359L17.9272 17.0703L17.6733 17.2656L17.3998 17.4805L17.0483 17.7539L16.7162 18.0078L16.4233 18.2422L16.0912 18.4961L15.8569 18.6914L15.603 18.8867L15.2709 19.1406L14.9194 19.3945L14.5678 19.6094L14.3334 19.7266L13.9233 19.8438L13.6498 19.8828H13.2397L12.8881 19.8242L12.5561 19.7266L12.2436 19.5703L11.9311 19.375L11.6186 19.1406L11.267 18.8672L10.935 18.6133L10.6225 18.3594L10.2905 18.1055L9.74359 17.6758L9.45062 17.4414L9.13812 17.207L8.84515 16.9727L8.51312 16.7188L8.20062 16.4648L7.86859 16.2109L7.57562 15.9766L6.98969 15.5273L6.67719 15.2734L6.34515 15.0195L6.05219 14.7656L5.83734 14.5898L5.64203 14.3945L5.50531 14.1992L5.38812 13.9648L5.32953 13.7305L5.31 13.5938V11.2305L5.36859 10.9961L5.50531 10.7227L5.68109 10.4883L5.77875 10.3906L6.03265 10.1562L6.2475 9.98047L6.54047 9.74609L7.08734 9.31641L7.4389 9.04297L7.71234 8.82812L8.0639 8.55469L8.33734 8.33984L8.6889 8.06641L9.50922 7.42188L9.76312 7.22656L10.0561 6.99219L10.3881 6.73828L10.6811 6.50391L10.935 6.30859L11.2084 6.09375L11.56 5.82031L11.853 5.60547L12.0483 5.46875L12.3412 5.29297L12.5952 5.17578L12.9272 5.07812L13.1811 5.03906Z" fill="#C5D5D7"/>
<path d="M9.35297 9.39453H9.54828L9.88031 9.47266L10.1342 9.60938L10.3491 9.76562L10.7006 10.0391L11.5209 10.6836L11.8725 10.957L12.4194 11.3867L12.7709 11.6602L13.0444 11.875L13.7475 12.4219L13.9428 12.5781L14.2748 12.832L14.5678 13.0664L14.8412 13.2812L15.1928 13.5547L15.6811 13.9453L15.8373 14.1016L15.9545 14.2773L16.0131 14.4727V14.6094L15.935 14.8242L15.7787 15.0195L15.5248 15.2539L15.2709 15.4492L14.7241 15.8789L14.3725 16.1523L14.0795 16.3477L13.8452 16.4648L13.6303 16.5234H13.2397L12.9858 16.4453L12.7123 16.2891L12.4975 16.1328L12.1459 15.8594L11.5991 15.4297L11.2475 15.1562L10.9741 14.9414L10.6225 14.668L10.3295 14.4336L10.0756 14.2383L9.80219 14.0234L9.54828 13.8281L9.27484 13.6133L8.92328 13.3398L7.28265 12.0508L7.06781 11.8555L6.93109 11.6406L6.89203 11.5234V11.2695L6.97015 11.0742L7.14594 10.8789L7.36078 10.6836L7.69281 10.4297L7.98578 10.1953L8.23969 10L8.51312 9.78516L8.82562 9.57031L9.06 9.45312L9.35297 9.39453Z" fill="#0A2B40"/>
<path d="M17.3022 9.375H17.5366L17.8686 9.45312L18.1811 9.62891L18.5131 9.88281L18.8647 10.1562L19.1381 10.3711L19.4897 10.6445L19.7827 10.8984L19.9194 11.0742L19.9975 11.25V11.5625L19.8998 11.7578L19.7241 11.9531L19.4897 12.168L18.9819 12.5586L18.2787 13.1055L17.9662 13.3008L17.7319 13.3984L17.6147 13.418H17.3217L17.0483 13.3594L16.7748 13.2227L16.5014 13.0273L16.1498 12.7539L15.8764 12.5391L15.5248 12.2656L15.2123 12.0117L15.0561 11.8555L14.9194 11.6602L14.8803 11.543V11.25L14.9584 11.0742L15.0756 10.918L15.2319 10.7617L15.5053 10.5469L15.7983 10.3125L16.0522 10.1172L16.3256 9.90234L16.6577 9.64844L16.9116 9.49219L17.1069 9.41406L17.3022 9.375Z" fill="#0A2B40"/>
<path d="M13.3178 6.26953H13.5717L13.8452 6.32812L14.1186 6.46484L14.4897 6.73828L14.7827 6.97266L15.1147 7.22656L15.603 7.61719L15.7983 7.79297L15.935 7.96875L16.0131 8.18359V8.35938L15.935 8.57422L15.8569 8.69141L15.603 8.94531L15.0561 9.375L14.8022 9.57031L14.5287 9.78516L14.2162 10.0195L13.9037 10.1953L13.728 10.2539L13.6303 10.2734H13.2592L13.0248 10.2148L12.7905 10.0977L12.517 9.90234L12.2436 9.6875L11.892 9.41406L11.3452 8.98438L11.1108 8.76953L10.9741 8.61328L10.8959 8.4375L10.8764 8.22266L10.9155 8.04688L11.0327 7.85156L11.228 7.65625L11.7748 7.22656L12.1264 6.95312L12.4194 6.71875L12.7709 6.46484L13.0444 6.32812L13.3178 6.26953Z" fill="#0A2B40"/>
</svg>
