<svg width="26" height="25" viewBox="0 0 26 25" fill="none" xmlns="http://www.w3.org/2000/svg">
<path d="M12.8087 0.5H14.0782L14.6251 0.5375L15.2697 0.6125L15.9337 0.725L16.6173 0.875L17.1447 1.025L17.7892 1.23125L18.5118 1.5125L19.1564 1.8125L19.5275 2L20.0548 2.3L20.6993 2.7125L20.9337 2.88125L21.1876 3.06875L21.6173 3.40625L21.8712 3.63125L22.1056 3.8375L22.6915 4.4L22.8282 4.55L23.0626 4.8125L23.3165 5.1125L23.5509 5.4125L23.7853 5.73125L24.0001 6.05L24.2931 6.51875L24.547 6.96875L24.8009 7.45625L25.0353 7.98125L25.3087 8.69375L25.5236 9.3875L25.6798 10.025L25.797 10.625L25.8947 11.3563L25.9337 11.825V13.2125L25.8556 14.0188L25.7579 14.6188L25.6212 15.275L25.4454 15.9125L25.2111 16.5875L25.0353 17.0375L24.84 17.4688L24.6056 17.9375L24.3712 18.3688L24.0587 18.875L23.6681 19.4375L23.3947 19.7938L23.1798 20.0563L22.9454 20.3188L22.7697 20.5063L22.6329 20.6563L21.8517 21.4063L21.6954 21.5375L21.4415 21.7438L20.8947 22.1563L20.5626 22.3813L20.2111 22.6063L19.8595 22.8125L19.4493 23.0375L18.8829 23.3188L18.4142 23.525L17.8282 23.75L17.1447 23.975L16.4415 24.1625L15.8165 24.2938L15.1329 24.4063L14.3712 24.4813L14.1173 24.5H12.8478L12.1251 24.4438L11.3048 24.3313L10.6993 24.2188L9.93762 24.0313L9.33215 23.8438L8.80481 23.6563L8.297 23.45L7.80872 23.225L7.32043 22.9813L6.89075 22.7375L6.51965 22.5125L6.18762 22.2875L5.81653 22.025L5.50403 21.7813L5.28918 21.6125L5.09387 21.4438L4.8595 21.2375L4.60559 21.0125L4.41028 20.825L4.27356 20.675L4.03918 20.4313L3.8634 20.225L3.70715 20.0563L3.51184 19.8125L3.297 19.5313L3.06262 19.2125L2.88684 18.95L2.672 18.6125L2.43762 18.2188L2.14465 17.675L1.89075 17.1313L1.65637 16.55L1.44153 15.9313L1.24622 15.2375L1.1095 14.5813L1.03137 14.1125L0.972778 13.6063L0.933716 12.95V12.0875L0.972778 11.4313L1.0509 10.7938L1.14856 10.25L1.28528 9.63125L1.48059 8.95625L1.7345 8.24375L1.91028 7.83125L2.16418 7.2875L2.43762 6.7625L2.71106 6.3125L3.00403 5.8625L3.27747 5.4875L3.5509 5.13125L3.76575 4.8875L3.922 4.7L4.13684 4.475L4.27356 4.325L5.07434 3.55625L5.28918 3.3875L5.58215 3.14375L5.91418 2.9L6.22668 2.675L6.51965 2.4875L6.79309 2.31875L7.14465 2.1125L7.59387 1.86875L7.9259 1.71875L8.2384 1.56875L8.64856 1.4L9.15637 1.2125L9.8595 0.9875L10.4454 0.8375L11.09 0.70625L11.8126 0.59375L12.5353 0.51875L12.8087 0.5Z" fill="white"/>
<path d="M13.1798 5.33746H13.6681L13.9415 5.37496L14.2345 5.44996L14.6837 5.65621L15.0353 5.88121L15.4454 6.18121L15.6993 6.36871L16.2462 6.78121L16.9493 7.30621L17.7697 7.92496L18.1212 8.18746L18.9415 8.80621L19.6447 9.33121L19.9181 9.53746L20.172 9.72496L20.465 9.94996L20.8947 10.2875L21.129 10.4937L21.3243 10.7L21.4611 10.925L21.5392 11.15L21.5587 11.2437V13.6625L21.5001 13.9062L21.3439 14.1875L21.129 14.4125L20.8556 14.675L20.6603 14.825L20.3478 15.0687L20.0157 15.3125L19.7423 15.5187L19.3907 15.7812L19.1173 15.9875L18.8634 16.175L18.5509 16.4187L18.2189 16.6625L17.9259 16.8875L17.672 17.075L17.3986 17.2812L17.047 17.5437L16.715 17.7875L16.422 18.0125L16.09 18.2562L15.8556 18.4437L15.6017 18.6312L15.2697 18.875L14.9181 19.1187L14.5665 19.325L14.3322 19.4375L13.922 19.55L13.6486 19.5875H13.2384L12.8868 19.5312L12.5548 19.4375L12.2423 19.2875L11.9298 19.1L11.6173 18.875L11.2657 18.6125L10.9337 18.3687L10.6212 18.125L10.2892 17.8812L9.74231 17.4687L9.44934 17.2437L9.13684 17.0187L8.84387 16.7937L8.51184 16.55L8.19934 16.3062L7.86731 16.0625L7.57434 15.8375L6.9884 15.4062L6.6759 15.1625L6.34387 14.9187L6.0509 14.675L5.83606 14.5062L5.64075 14.3187L5.50403 14.1312L5.38684 13.9062L5.32825 13.6812L5.30872 13.55V11.2812L5.36731 11.0562L5.50403 10.7937L5.67981 10.5687L5.77747 10.475L6.03137 10.25L6.24622 10.0812L6.53918 9.85621L7.08606 9.44371L7.43762 9.18121L7.71106 8.97496L8.06262 8.71246L8.33606 8.50621L8.68762 8.24371L9.50793 7.62496L9.76184 7.43746L10.0548 7.21246L10.3868 6.96871L10.6798 6.74371L10.9337 6.55621L11.2072 6.34996L11.5587 6.08746L11.8517 5.88121L12.047 5.74996L12.34 5.58121L12.5939 5.46871L12.9259 5.37496L13.1798 5.33746Z" fill="#1A6EA2"/>
<path d="M9.35168 9.51874H9.547L9.87903 9.59374L10.1329 9.72499L10.3478 9.87499L10.6993 10.1375L11.5197 10.7562L11.8712 11.0187L12.4181 11.4312L12.7697 11.6937L13.0431 11.9L13.7462 12.425L13.9415 12.575L14.2736 12.8187L14.5665 13.0437L14.84 13.25L15.1915 13.5125L15.6798 13.8875L15.8361 14.0375L15.9532 14.2062L16.0118 14.3937V14.525L15.9337 14.7312L15.7775 14.9187L15.5236 15.1437L15.2697 15.3312L14.7228 15.7437L14.3712 16.0062L14.0782 16.1937L13.8439 16.3062L13.629 16.3625H13.2384L12.9845 16.2875L12.7111 16.1375L12.4962 15.9875L12.1447 15.725L11.5978 15.3125L11.2462 15.05L10.9728 14.8437L10.6212 14.5812L10.3282 14.3562L10.0743 14.1687L9.8009 13.9625L9.547 13.775L9.27356 13.5687L8.922 13.3062L7.28137 12.0687L7.06653 11.8812L6.92981 11.675L6.89075 11.5625V11.3187L6.96887 11.1312L7.14465 10.9437L7.3595 10.7562L7.69153 10.5125L7.9845 10.2875L8.2384 10.1L8.51184 9.89374L8.82434 9.68749L9.05872 9.57499L9.35168 9.51874Z" fill="white"/>
<path d="M17.3009 9.5H17.5353L17.8673 9.575L18.1798 9.74375L18.5118 9.9875L18.8634 10.25L19.1368 10.4562L19.4884 10.7187L19.7814 10.9625L19.9181 11.1312L19.9962 11.3V11.6L19.8986 11.7875L19.7228 11.975L19.4884 12.1812L18.9806 12.5562L18.2775 13.0812L17.965 13.2687L17.7306 13.3625L17.6134 13.3812H17.3204L17.047 13.325L16.7736 13.1937L16.5001 13.0062L16.1486 12.7437L15.8751 12.5375L15.5236 12.275L15.2111 12.0312L15.0548 11.8812L14.9181 11.6937L14.879 11.5812V11.3L14.9572 11.1312L15.0743 10.9812L15.2306 10.8312L15.504 10.625L15.797 10.4L16.0509 10.2125L16.3243 10.0062L16.6564 9.7625L16.9103 9.6125L17.1056 9.5375L17.3009 9.5Z" fill="white"/>
<path d="M13.3165 6.51874H13.5704L13.8439 6.57499L14.1173 6.70624L14.4884 6.96874L14.7814 7.19374L15.1134 7.43749L15.6017 7.81249L15.797 7.98124L15.9337 8.14999L16.0118 8.35624V8.52499L15.9337 8.73124L15.8556 8.84374L15.6017 9.08749L15.0548 9.49999L14.8009 9.68749L14.5275 9.89374L14.215 10.1187L13.9025 10.2875L13.7267 10.3437L13.629 10.3625H13.2579L13.0236 10.3062L12.7892 10.1937L12.5157 10.0062L12.2423 9.79999L11.8907 9.53749L11.3439 9.12499L11.1095 8.91874L10.9728 8.76874L10.8947 8.59999L10.8751 8.39374L10.9142 8.22499L11.0314 8.03749L11.2267 7.84999L11.7736 7.43749L12.1251 7.17499L12.4181 6.94999L12.7697 6.70624L13.0431 6.57499L13.3165 6.51874Z" fill="white"/>
</svg>
