<svg width="26" height="25" viewBox="0 0 26 25" fill="none" xmlns="http://www.w3.org/2000/svg">
<path d="M12.8101 0H14.0796L14.6265 0.0390625L15.271 0.117188L15.9351 0.234375L16.6187 0.390625L17.146 0.546875L17.7905 0.761719L18.5132 1.05469L19.1577 1.36719L19.5288 1.5625L20.0562 1.875L20.7007 2.30469L20.9351 2.48047L21.189 2.67578L21.6187 3.02734L21.8726 3.26172L22.1069 3.47656L22.6929 4.0625L22.8296 4.21875L23.064 4.49219L23.3179 4.80469L23.5522 5.11719L23.7866 5.44922L24.0015 5.78125L24.2944 6.26953L24.5483 6.73828L24.8022 7.24609L25.0366 7.79297L25.3101 8.53516L25.5249 9.25781L25.6812 9.92188L25.7983 10.5469L25.896 11.3086L25.9351 11.7969V13.2422L25.8569 14.082L25.7593 14.707L25.6226 15.3906L25.4468 16.0547L25.2124 16.7578L25.0366 17.2266L24.8413 17.6758L24.6069 18.1641L24.3726 18.6133L24.0601 19.1406L23.6694 19.7266L23.396 20.0977L23.1812 20.3711L22.9468 20.6445L22.771 20.8398L22.6343 20.9961L21.853 21.7773L21.6968 21.9141L21.4429 22.1289L20.896 22.5586L20.564 22.793L20.2124 23.0273L19.8608 23.2422L19.4507 23.4766L18.8843 23.7695L18.4155 23.9844L17.8296 24.2188L17.146 24.4531L16.4429 24.6484L15.8179 24.7852L15.1343 24.9023L14.3726 24.9805L14.1187 25H12.8491L12.1265 24.9414L11.3062 24.8242L10.7007 24.707L9.93896 24.5117L9.3335 24.3164L8.80615 24.1211L8.29834 23.9062L7.81006 23.6719L7.32178 23.418L6.89209 23.1641L6.521 22.9297L6.18896 22.6953L5.81787 22.4219L5.50537 22.168L5.29053 21.9922L5.09521 21.8164L4.86084 21.6016L4.60693 21.3672L4.41162 21.1719L4.2749 21.0156L4.04053 20.7617L3.86475 20.5469L3.7085 20.3711L3.51318 20.1172L3.29834 19.8242L3.06396 19.4922L2.88818 19.2188L2.67334 18.8672L2.43896 18.457L2.146 17.8906L1.89209 17.3242L1.65771 16.7188L1.44287 16.0742L1.24756 15.3516L1.11084 14.668L1.03271 14.1797L0.974121 13.6523L0.935059 12.9688V12.0703L0.974121 11.3867L1.05225 10.7227L1.1499 10.1562L1.28662 9.51172L1.48193 8.80859L1.73584 8.06641L1.91162 7.63672L2.16553 7.07031L2.43896 6.52344L2.7124 6.05469L3.00537 5.58594L3.27881 5.19531L3.55225 4.82422L3.76709 4.57031L3.92334 4.375L4.13818 4.14062L4.2749 3.98438L5.07568 3.18359L5.29053 3.00781L5.5835 2.75391L5.91553 2.5L6.22803 2.26562L6.521 2.07031L6.79443 1.89453L7.146 1.67969L7.59521 1.42578L7.92725 1.26953L8.23975 1.11328L8.6499 0.9375L9.15771 0.742188L9.86084 0.507812L10.4468 0.351562L11.0913 0.214844L11.814 0.0976562L12.5366 0.0195312L12.8101 0Z" fill="#0A2B40"/>
<path d="M13.1812 5.03906H13.6694L13.9429 5.07812L14.2358 5.15625L14.6851 5.37109L15.0366 5.60547L15.4468 5.91797L15.7007 6.11328L16.2476 6.54297L16.9507 7.08984L17.771 7.73438L18.1226 8.00781L18.9429 8.65234L19.646 9.19922L19.9194 9.41406L20.1733 9.60938L20.4663 9.84375L20.896 10.1953L21.1304 10.4102L21.3257 10.625L21.4624 10.8594L21.5405 11.0938L21.5601 11.1914V13.7109L21.5015 13.9648L21.3452 14.2578L21.1304 14.4922L20.8569 14.7656L20.6616 14.9219L20.3491 15.1758L20.0171 15.4297L19.7437 15.6445L19.3921 15.918L19.1187 16.1328L18.8647 16.3281L18.5522 16.582L18.2202 16.8359L17.9272 17.0703L17.6733 17.2656L17.3999 17.4805L17.0483 17.7539L16.7163 18.0078L16.4233 18.2422L16.0913 18.4961L15.8569 18.6914L15.603 18.8867L15.271 19.1406L14.9194 19.3945L14.5679 19.6094L14.3335 19.7266L13.9233 19.8438L13.6499 19.8828H13.2397L12.8882 19.8242L12.5562 19.7266L12.2437 19.5703L11.9312 19.375L11.6187 19.1406L11.2671 18.8672L10.9351 18.6133L10.6226 18.3594L10.2905 18.1055L9.74365 17.6758L9.45068 17.4414L9.13818 17.207L8.84522 16.9727L8.51318 16.7188L8.20068 16.4648L7.86865 16.2109L7.57568 15.9766L6.98975 15.5273L6.67725 15.2734L6.34521 15.0195L6.05225 14.7656L5.8374 14.5898L5.64209 14.3945L5.50537 14.1992L5.38818 13.9648L5.32959 13.7305L5.31006 13.5938V11.2305L5.36865 10.9961L5.50537 10.7227L5.68115 10.4883L5.77881 10.3906L6.03271 10.1562L6.24756 9.98047L6.54053 9.74609L7.0874 9.31641L7.43897 9.04297L7.7124 8.82812L8.06397 8.55469L8.3374 8.33984L8.68897 8.06641L9.50928 7.42188L9.76318 7.22656L10.0562 6.99219L10.3882 6.73828L10.6812 6.50391L10.9351 6.30859L11.2085 6.09375L11.5601 5.82031L11.853 5.60547L12.0483 5.46875L12.3413 5.29297L12.5952 5.17578L12.9272 5.07812L13.1812 5.03906Z" fill="#C5D5D7"/>
<path d="M9.35303 9.39453H9.54834L9.88037 9.47266L10.1343 9.60938L10.3491 9.76562L10.7007 10.0391L11.521 10.6836L11.8726 10.957L12.4194 11.3867L12.771 11.6602L13.0444 11.875L13.7476 12.4219L13.9429 12.5781L14.2749 12.832L14.5679 13.0664L14.8413 13.2812L15.1929 13.5547L15.6812 13.9453L15.8374 14.1016L15.9546 14.2773L16.0132 14.4727V14.6094L15.9351 14.8242L15.7788 15.0195L15.5249 15.2539L15.271 15.4492L14.7241 15.8789L14.3726 16.1523L14.0796 16.3477L13.8452 16.4648L13.6304 16.5234H13.2397L12.9858 16.4453L12.7124 16.2891L12.4976 16.1328L12.146 15.8594L11.5991 15.4297L11.2476 15.1562L10.9741 14.9414L10.6226 14.668L10.3296 14.4336L10.0757 14.2383L9.80225 14.0234L9.54834 13.8281L9.2749 13.6133L8.92334 13.3398L7.28271 12.0508L7.06787 11.8555L6.93115 11.6406L6.89209 11.5234V11.2695L6.97021 11.0742L7.146 10.8789L7.36084 10.6836L7.69287 10.4297L7.98584 10.1953L8.23975 10L8.51318 9.78516L8.82568 9.57031L9.06006 9.45312L9.35303 9.39453Z" fill="#0A2B40"/>
<path d="M17.3022 9.375H17.5366L17.8687 9.45312L18.1812 9.62891L18.5132 9.88281L18.8647 10.1562L19.1382 10.3711L19.4897 10.6445L19.7827 10.8984L19.9194 11.0742L19.9976 11.25V11.5625L19.8999 11.7578L19.7241 11.9531L19.4897 12.168L18.9819 12.5586L18.2788 13.1055L17.9663 13.3008L17.7319 13.3984L17.6147 13.418H17.3218L17.0483 13.3594L16.7749 13.2227L16.5015 13.0273L16.1499 12.7539L15.8765 12.5391L15.5249 12.2656L15.2124 12.0117L15.0562 11.8555L14.9194 11.6602L14.8804 11.543V11.25L14.9585 11.0742L15.0757 10.918L15.2319 10.7617L15.5054 10.5469L15.7983 10.3125L16.0522 10.1172L16.3257 9.90234L16.6577 9.64844L16.9116 9.49219L17.1069 9.41406L17.3022 9.375Z" fill="#0A2B40"/>
<path d="M13.3179 6.26953H13.5718L13.8452 6.32812L14.1187 6.46484L14.4897 6.73828L14.7827 6.97266L15.1147 7.22656L15.603 7.61719L15.7983 7.79297L15.9351 7.96875L16.0132 8.18359V8.35938L15.9351 8.57422L15.8569 8.69141L15.603 8.94531L15.0562 9.375L14.8022 9.57031L14.5288 9.78516L14.2163 10.0195L13.9038 10.1953L13.728 10.2539L13.6304 10.2734H13.2593L13.0249 10.2148L12.7905 10.0977L12.5171 9.90234L12.2437 9.6875L11.8921 9.41406L11.3452 8.98438L11.1108 8.76953L10.9741 8.61328L10.896 8.4375L10.8765 8.22266L10.9155 8.04688L11.0327 7.85156L11.228 7.65625L11.7749 7.22656L12.1265 6.95312L12.4194 6.71875L12.771 6.46484L13.0444 6.32812L13.3179 6.26953Z" fill="#0A2B40"/>
</svg>
