<svg width="26" height="25" viewBox="0 0 26 25" fill="none" xmlns="http://www.w3.org/2000/svg">
<path d="M12.8087 0.75H14.0782L14.6251 0.7875L15.2697 0.8625L15.9337 0.975L16.6173 1.125L17.1447 1.275L17.7892 1.48125L18.5118 1.7625L19.1564 2.0625L19.5275 2.25L20.0548 2.55L20.6993 2.9625L20.9337 3.13125L21.1876 3.31875L21.6173 3.65625L21.8712 3.88125L22.1056 4.0875L22.6915 4.65L22.8282 4.8L23.0626 5.0625L23.3165 5.3625L23.5509 5.6625L23.7853 5.98125L24.0001 6.3L24.2931 6.76875L24.547 7.21875L24.8009 7.70625L25.0353 8.23125L25.3087 8.94375L25.5236 9.6375L25.6798 10.275L25.797 10.875L25.8947 11.6063L25.9337 12.075V13.4625L25.8556 14.2688L25.7579 14.8688L25.6212 15.525L25.4454 16.1625L25.2111 16.8375L25.0353 17.2875L24.84 17.7188L24.6056 18.1875L24.3712 18.6188L24.0587 19.125L23.6681 19.6875L23.3947 20.0438L23.1798 20.3063L22.9454 20.5688L22.7697 20.7563L22.6329 20.9062L21.8517 21.6562L21.6954 21.7875L21.4415 21.9938L20.8947 22.4062L20.5626 22.6313L20.2111 22.8563L19.8595 23.0625L19.4493 23.2875L18.8829 23.5688L18.4142 23.775L17.8282 24L17.1447 24.225L16.4415 24.4125L15.8165 24.5438L15.1329 24.6562L14.3712 24.7313L14.1173 24.75H12.8478L12.1251 24.6938L11.3048 24.5813L10.6993 24.4688L9.93762 24.2812L9.33215 24.0938L8.80481 23.9062L8.297 23.7L7.80872 23.475L7.32043 23.2313L6.89075 22.9875L6.51965 22.7625L6.18762 22.5375L5.81653 22.275L5.50403 22.0312L5.28918 21.8625L5.09387 21.6938L4.8595 21.4875L4.60559 21.2625L4.41028 21.075L4.27356 20.925L4.03918 20.6813L3.8634 20.475L3.70715 20.3063L3.51184 20.0625L3.297 19.7812L3.06262 19.4625L2.88684 19.2L2.672 18.8625L2.43762 18.4688L2.14465 17.925L1.89075 17.3813L1.65637 16.8L1.44153 16.1813L1.24622 15.4875L1.1095 14.8313L1.03137 14.3625L0.972778 13.8563L0.933716 13.2V12.3375L0.972778 11.6813L1.0509 11.0438L1.14856 10.5L1.28528 9.88125L1.48059 9.20625L1.7345 8.49375L1.91028 8.08125L2.16418 7.5375L2.43762 7.0125L2.71106 6.5625L3.00403 6.1125L3.27747 5.7375L3.5509 5.38125L3.76575 5.1375L3.922 4.95L4.13684 4.725L4.27356 4.575L5.07434 3.80625L5.28918 3.6375L5.58215 3.39375L5.91418 3.15L6.22668 2.925L6.51965 2.7375L6.79309 2.56875L7.14465 2.3625L7.59387 2.11875L7.9259 1.96875L8.2384 1.81875L8.64856 1.65L9.15637 1.4625L9.8595 1.2375L10.4454 1.0875L11.09 0.95625L11.8126 0.84375L12.5353 0.76875L12.8087 0.75Z" fill="white"/>
<path d="M13.1798 5.58752H13.6681L13.9415 5.62502L14.2345 5.70002L14.6837 5.90627L15.0353 6.13127L15.4454 6.43127L15.6993 6.61877L16.2462 7.03127L16.9493 7.55627L17.7696 8.17502L18.1212 8.43752L18.9415 9.05627L19.6446 9.58127L19.9181 9.78752L20.172 9.97502L20.4649 10.2L20.8946 10.5375L21.129 10.7438L21.3243 10.95L21.461 11.175L21.5392 11.4L21.5587 11.4938V13.9125L21.5001 14.1563L21.3438 14.4375L21.129 14.6625L20.8556 14.925L20.6603 15.075L20.3478 15.3188L20.0157 15.5625L19.7423 15.7688L19.3907 16.0313L19.1173 16.2375L18.8634 16.425L18.5509 16.6688L18.2188 16.9125L17.9259 17.1375L17.672 17.325L17.3985 17.5313L17.047 17.7938L16.7149 18.0375L16.422 18.2625L16.0899 18.5063L15.8556 18.6938L15.6017 18.8813L15.2696 19.125L14.9181 19.3688L14.5665 19.575L14.3321 19.6875L13.922 19.8L13.6485 19.8375H13.2384L12.8868 19.7813L12.5548 19.6875L12.2423 19.5375L11.9298 19.35L11.6173 19.125L11.2657 18.8625L10.9337 18.6188L10.6212 18.375L10.2892 18.1313L9.74229 17.7188L9.44932 17.4938L9.13682 17.2688L8.84385 17.0438L8.51182 16.8L8.19932 16.5563L7.86729 16.3125L7.57432 16.0875L6.98838 15.6563L6.67588 15.4125L6.34385 15.1688L6.05088 14.925L5.83603 14.7563L5.64072 14.5688L5.504 14.3813L5.38682 14.1563L5.32822 13.9313L5.30869 13.8V11.5313L5.36728 11.3063L5.504 11.0438L5.67978 10.8188L5.77744 10.725L6.03135 10.5L6.24619 10.3313L6.53916 10.1063L7.08603 9.69377L7.4376 9.43127L7.71104 9.22502L8.0626 8.96252L8.33604 8.75627L8.6876 8.49377L9.50791 7.87502L9.76182 7.68752L10.0548 7.46252L10.3868 7.21877L10.6798 6.99377L10.9337 6.80627L11.2071 6.60002L11.5587 6.33752L11.8517 6.13127L12.047 6.00002L12.3399 5.83127L12.5938 5.71877L12.9259 5.62502L13.1798 5.58752Z" fill="#1A6EA2"/>
<path d="M9.35169 9.7688H9.547L9.87903 9.8438L10.1329 9.97505L10.3478 10.125L10.6993 10.3875L11.5197 11.0063L11.8712 11.2688L12.4181 11.6813L12.7697 11.9438L13.0431 12.15L13.7462 12.675L13.9415 12.825L14.2736 13.0688L14.5665 13.2938L14.84 13.5L15.1915 13.7625L15.6798 14.1375L15.8361 14.2875L15.9533 14.4563L16.0118 14.6438V14.775L15.9337 14.9813L15.7775 15.1688L15.5236 15.3938L15.2697 15.5813L14.7228 15.9938L14.3712 16.2563L14.0783 16.4438L13.8439 16.5563L13.629 16.6125H13.2384L12.9845 16.5375L12.7111 16.3875L12.4962 16.2375L12.1447 15.975L11.5978 15.5625L11.2462 15.3L10.9728 15.0938L10.6212 14.8313L10.3283 14.6063L10.0743 14.4188L9.80091 14.2125L9.547 14.025L9.27356 13.8188L8.922 13.5563L7.28138 12.3188L7.06653 12.1313L6.92981 11.925L6.89075 11.8125V11.5688L6.96888 11.3813L7.14466 11.1938L7.3595 11.0063L7.69153 10.7625L7.9845 10.5375L8.23841 10.35L8.51184 10.1438L8.82434 9.93755L9.05872 9.82505L9.35169 9.7688Z" fill="white"/>
<path d="M17.3009 9.75H17.5353L17.8673 9.825L18.1798 9.99375L18.5118 10.2375L18.8634 10.5L19.1368 10.7062L19.4884 10.9687L19.7814 11.2125L19.9181 11.3812L19.9962 11.55V11.85L19.8986 12.0375L19.7228 12.225L19.4884 12.4312L18.9806 12.8062L18.2775 13.3312L17.965 13.5187L17.7306 13.6125L17.6134 13.6312H17.3204L17.047 13.575L16.7736 13.4437L16.5001 13.2562L16.1486 12.9937L15.8751 12.7875L15.5236 12.525L15.2111 12.2812L15.0548 12.1312L14.9181 11.9437L14.879 11.8312V11.55L14.9571 11.3812L15.0743 11.2312L15.2306 11.0812L15.504 10.875L15.797 10.65L16.0509 10.4625L16.3243 10.2562L16.6564 10.0125L16.9103 9.8625L17.1056 9.7875L17.3009 9.75Z" fill="white"/>
<path d="M13.3165 6.7688H13.5704L13.8439 6.82505L14.1173 6.9563L14.4884 7.2188L14.7814 7.4438L15.1134 7.68755L15.6017 8.06255L15.797 8.2313L15.9337 8.40005L16.0118 8.6063V8.77505L15.9337 8.9813L15.8556 9.0938L15.6017 9.33755L15.0548 9.75005L14.8009 9.93755L14.5275 10.1438L14.215 10.3688L13.9025 10.5375L13.7267 10.5938L13.629 10.6125H13.2579L13.0236 10.5563L12.7892 10.4438L12.5157 10.2563L12.2423 10.05L11.8907 9.78755L11.3439 9.37505L11.1095 9.1688L10.9728 9.0188L10.8946 8.85005L10.8751 8.6438L10.9142 8.47505L11.0314 8.28755L11.2267 8.10005L11.7736 7.68755L12.1251 7.42505L12.4181 7.20005L12.7696 6.9563L13.0431 6.82505L13.3165 6.7688Z" fill="white"/>
</svg>
