<svg width="26" height="25" viewBox="0 0 26 25" fill="none" xmlns="http://www.w3.org/2000/svg">
<path d="M13.2347 0.749956H13.3277C15.5697 0.749956 17.6677 1.36296 19.4647 2.42996L19.4097 2.39896C21.2486 3.46549 22.781 4.98862 23.8587 6.82096L23.8897 6.87896C24.9786 8.75105 25.5494 10.8792 25.5437 13.045C25.5437 18.451 22.0607 23.045 17.2167 24.703L17.1297 24.729C17.0214 24.7619 16.9067 24.7689 16.7952 24.7493C16.6836 24.7296 16.5783 24.684 16.4877 24.616L16.4897 24.617C16.424 24.5585 16.3714 24.4867 16.3355 24.4063C16.2997 24.326 16.2813 24.2389 16.2817 24.151V24.137V24.138L16.2897 22.912C16.295 22.1266 16.2977 21.4086 16.2977 20.758C16.3351 20.341 16.2798 19.9208 16.1358 19.5277C15.9917 19.1346 15.7626 18.7782 15.4647 18.484C16.0446 18.4279 16.619 18.326 17.1827 18.179L17.1067 18.196C17.6445 18.0488 18.161 17.833 18.6437 17.554L18.6127 17.571C19.1056 17.302 19.5438 16.9431 19.9047 16.513L19.9107 16.506C20.2925 16.0158 20.5775 15.4576 20.7507 14.861L20.7597 14.826C20.9803 14.0858 21.0911 13.3173 21.0887 12.545L21.0877 12.409V12.416L21.0887 12.344C21.0902 11.1454 20.6367 9.99096 19.8197 9.11396L19.8227 9.11696C19.9907 8.67696 20.0877 8.16896 20.0877 7.63796C20.0885 7.01089 19.9506 6.39141 19.6837 5.82396L19.6947 5.84996C19.2499 5.76763 18.7905 5.83112 18.3847 6.03096L18.3967 6.02596C17.8703 6.21811 17.3639 6.46127 16.8847 6.75196L16.9227 6.72996L16.3137 7.11396C15.3917 6.84996 14.3327 6.69796 13.2387 6.69796C12.1447 6.69796 11.0857 6.84996 10.0817 7.13396L10.1627 7.11396C9.99205 6.99662 9.76505 6.85229 9.48171 6.68096C9.07386 6.4498 8.64856 6.25086 8.20971 6.08596L8.14371 6.06396C7.72187 5.84405 7.23946 5.76886 6.77071 5.84996L6.78371 5.84796C6.52283 6.40781 6.38865 7.01831 6.39071 7.63596C6.39071 8.16696 6.48771 8.67596 6.66571 9.14496L6.65571 9.11596C5.82187 10.0114 5.36833 11.1956 5.39071 12.419V12.415L5.38971 12.545C5.38971 13.354 5.50971 14.136 5.73371 14.872L5.71871 14.815C5.90771 15.458 6.19471 16.017 6.56871 16.508L6.55971 16.495C6.91115 16.9258 7.34107 17.2862 7.82671 17.557L7.84871 17.568C8.28071 17.82 8.78171 18.033 9.30871 18.182L9.35471 18.193C9.82071 18.318 10.3787 18.42 10.9497 18.477L10.9957 18.481C10.5647 18.909 10.2777 19.481 10.2117 20.119L10.2107 20.131C9.98831 20.2381 9.75354 20.3173 9.51171 20.367L9.49071 20.371C9.23471 20.422 8.94171 20.451 8.64071 20.451H8.57471H8.57771C8.19923 20.4427 7.83186 20.3215 7.52271 20.103L7.52871 20.107C7.16156 19.8522 6.85971 19.5144 6.64771 19.121L6.64071 19.106C6.44835 18.7774 6.18618 18.4951 5.87271 18.279L5.86371 18.273C5.63137 18.0984 5.36806 17.9695 5.08771 17.893L5.07171 17.889L4.75171 17.841C4.59112 17.8292 4.42996 17.8545 4.28071 17.915L4.28771 17.912C4.20238 17.96 4.17571 18.0213 4.20771 18.096C4.24638 18.1813 4.29471 18.2563 4.35271 18.321L4.35171 18.32C4.41305 18.392 4.48138 18.4553 4.55671 18.51L4.55971 18.512L4.67171 18.592C4.95471 18.74 5.18771 18.946 5.36471 19.195L5.36871 19.201C5.55971 19.438 5.72771 19.706 5.86271 19.993L5.87271 20.017L6.03271 20.385C6.16771 20.787 6.41271 21.123 6.73271 21.366L6.73771 21.37C7.03771 21.604 7.39971 21.772 7.79471 21.848L7.81071 21.85C8.14071 21.914 8.52471 21.954 8.91671 21.962H8.92371C8.96971 21.9633 9.01971 21.964 9.07371 21.964C9.33505 21.964 9.59071 21.9433 9.84071 21.902L9.81371 21.906L10.1817 21.842C10.1817 22.248 10.1844 22.7206 10.1897 23.26C10.195 23.7993 10.1977 24.0903 10.1977 24.133V24.147C10.1977 24.332 10.1177 24.498 9.98971 24.613C9.89862 24.6811 9.79167 24.7267 9.67955 24.746C9.56744 24.7653 9.45235 24.7577 9.34371 24.724L9.34871 24.725C4.41971 23.036 0.939713 18.442 0.939713 13.035C0.939713 10.767 1.55171 8.64196 2.62071 6.81596L2.58871 6.87396C3.65525 5.0351 5.17838 3.50267 7.01071 2.42496L7.06871 2.39396C8.9088 1.3107 11.0065 0.742507 13.1417 0.748956H13.2397H13.2347V0.749956ZM5.59471 18.416C5.62671 18.3413 5.58938 18.2773 5.48271 18.224C5.37605 18.192 5.30671 18.2026 5.27471 18.256C5.24271 18.3306 5.28005 18.3946 5.38671 18.448C5.48271 18.512 5.55205 18.5013 5.59471 18.416ZM6.09171 18.961C6.16638 18.9076 6.15571 18.8223 6.05971 18.705C5.95305 18.609 5.86771 18.593 5.80371 18.657C5.72905 18.7103 5.73971 18.7956 5.83571 18.913C5.94171 19.0176 6.02705 19.0333 6.09171 18.96V18.961ZM6.57171 19.681C6.66771 19.6063 6.66771 19.505 6.57171 19.377C6.48638 19.2383 6.39571 19.2063 6.29971 19.281C6.20371 19.3343 6.20371 19.4303 6.29971 19.569C6.39571 19.7076 6.48638 19.745 6.57171 19.681ZM7.24371 20.354C7.32905 20.2686 7.30771 20.1673 7.17971 20.05C7.05171 19.922 6.94505 19.906 6.85971 20.002C6.76371 20.0873 6.78505 20.1886 6.92371 20.306C7.05171 20.434 7.15838 20.4486 7.24371 20.35V20.354ZM8.15671 20.754C8.18871 20.6366 8.11938 20.5513 7.94871 20.498C7.78871 20.4553 7.68738 20.4926 7.64471 20.61C7.60205 20.7273 7.67138 20.8073 7.85271 20.85C8.01271 20.9146 8.11405 20.8826 8.15671 20.754ZM9.16571 20.834C9.16571 20.6953 9.07505 20.6366 8.89371 20.658C8.72305 20.658 8.63771 20.7166 8.63771 20.834C8.63771 20.9726 8.72838 21.0313 8.90971 21.01C9.08038 21.0106 9.16571 20.9513 9.16571 20.834ZM10.0947 20.674C10.0734 20.5566 9.97738 20.5086 9.80671 20.53C9.63605 20.562 9.56138 20.642 9.58271 20.77C9.60405 20.898 9.70005 20.9406 9.87071 20.898C10.0414 20.8553 10.1154 20.7806 10.0947 20.674Z" fill="white"/>
</svg>
