<svg width="26" height="25" viewBox="0 0 26 25" fill="none" xmlns="http://www.w3.org/2000/svg">
<path d="M13.236 0.499956H13.329C15.571 0.499956 17.669 1.11296 19.466 2.17996L19.411 2.14896C21.2499 3.21549 22.7823 4.73862 23.86 6.57096L23.891 6.62896C24.9799 8.50105 25.5508 10.6292 25.545 12.795C25.545 18.201 22.062 22.795 17.218 24.453L17.131 24.479C17.0227 24.5119 16.9081 24.5189 16.7965 24.4993C16.685 24.4796 16.5796 24.434 16.489 24.366L16.491 24.367C16.4253 24.3085 16.3727 24.2367 16.3369 24.1563C16.301 24.076 16.2827 23.9889 16.283 23.901V23.887V23.888L16.291 22.662C16.2964 21.8766 16.299 21.1586 16.299 20.508C16.3364 20.091 16.2811 19.6708 16.1371 19.2777C15.9931 18.8846 15.7639 18.5282 15.466 18.234C16.0459 18.1779 16.6204 18.076 17.184 17.929L17.108 17.946C17.6458 17.7988 18.1624 17.583 18.645 17.304L18.614 17.321C19.1069 17.052 19.5452 16.6931 19.906 16.263L19.912 16.256C20.2938 15.7658 20.5789 15.2076 20.752 14.611L20.761 14.576C20.9816 13.8358 21.0925 13.0673 21.09 12.295L21.089 12.159V12.166L21.09 12.094C21.0916 10.8954 20.638 9.74096 19.821 8.86396L19.824 8.86696C19.992 8.42696 20.089 7.91896 20.089 7.38796C20.0898 6.76089 19.9519 6.14141 19.685 5.57396L19.696 5.59996C19.2513 5.51763 18.7918 5.58112 18.386 5.78096L18.398 5.77596C17.8716 5.96811 17.3652 6.21127 16.886 6.50196L16.924 6.47996L16.315 6.86396C15.393 6.59996 14.334 6.44796 13.24 6.44796C12.146 6.44796 11.087 6.59996 10.083 6.88396L10.164 6.86396C9.99337 6.74662 9.76637 6.60229 9.48304 6.43096C9.07518 6.1998 8.64989 6.00086 8.21104 5.83596L8.14504 5.81396C7.7232 5.59405 7.24079 5.51886 6.77204 5.59996L6.78504 5.59796C6.52416 6.15781 6.38998 6.76831 6.39204 7.38596C6.39204 7.91696 6.48904 8.42596 6.66704 8.89496L6.65704 8.86596C5.8232 9.76138 5.36966 10.9456 5.39204 12.169V12.165L5.39104 12.295C5.39104 13.104 5.51104 13.886 5.73504 14.622L5.72004 14.565C5.90904 15.208 6.19604 15.767 6.57004 16.258L6.56104 16.245C6.91248 16.6758 7.3424 17.0362 7.82804 17.307L7.85004 17.318C8.28204 17.57 8.78304 17.783 9.31004 17.932L9.35604 17.943C9.82204 18.068 10.38 18.17 10.951 18.227L10.997 18.231C10.566 18.659 10.279 19.231 10.213 19.869L10.212 19.881C9.98964 19.9881 9.75486 20.0673 9.51304 20.117L9.49204 20.121C9.23604 20.172 8.94304 20.201 8.64204 20.201H8.57604H8.57904C8.20056 20.1927 7.83318 20.0715 7.52404 19.853L7.53004 19.857C7.16289 19.6022 6.86104 19.2644 6.64904 18.871L6.64204 18.856C6.44968 18.5274 6.1875 18.2451 5.87404 18.029L5.86504 18.023C5.6327 17.8484 5.36939 17.7195 5.08904 17.643L5.07304 17.639L4.75304 17.591C4.59244 17.5792 4.43129 17.6045 4.28204 17.665L4.28904 17.662C4.20371 17.71 4.17704 17.7713 4.20904 17.846C4.24771 17.9313 4.29604 18.0063 4.35404 18.071L4.35304 18.07C4.41437 18.142 4.48271 18.2053 4.55804 18.26L4.56104 18.262L4.67304 18.342C4.95604 18.49 5.18904 18.696 5.36604 18.945L5.37004 18.951C5.56104 19.188 5.72904 19.456 5.86404 19.743L5.87404 19.767L6.03404 20.135C6.16904 20.537 6.41404 20.873 6.73404 21.116L6.73904 21.12C7.03904 21.354 7.40104 21.522 7.79604 21.598L7.81204 21.6C8.14204 21.664 8.52604 21.704 8.91804 21.712H8.92504C8.97104 21.7133 9.02104 21.714 9.07504 21.714C9.33637 21.714 9.59204 21.6933 9.84204 21.652L9.81504 21.656L10.183 21.592C10.183 21.998 10.1857 22.4706 10.191 23.01C10.1964 23.5493 10.199 23.8403 10.199 23.883V23.897C10.199 24.082 10.119 24.248 9.99104 24.363C9.89994 24.4311 9.793 24.4767 9.68088 24.496C9.56877 24.5153 9.45368 24.5077 9.34504 24.474L9.35004 24.475C4.42104 22.786 0.94104 18.192 0.94104 12.785C0.94104 10.517 1.55304 8.39196 2.62204 6.56596L2.59004 6.62396C3.65658 4.7851 5.17971 3.25267 7.01204 2.17496L7.07004 2.14396C8.91013 1.0607 11.0078 0.492507 13.143 0.498956H13.241H13.236V0.499956ZM5.59604 18.166C5.62804 18.0913 5.59071 18.0273 5.48404 17.974C5.37737 17.942 5.30804 17.9526 5.27604 18.006C5.24404 18.0806 5.28137 18.1446 5.38804 18.198C5.48404 18.262 5.55337 18.2513 5.59604 18.166ZM6.09304 18.711C6.16771 18.6576 6.15704 18.5723 6.06104 18.455C5.95437 18.359 5.86904 18.343 5.80504 18.407C5.73037 18.4603 5.74104 18.5456 5.83704 18.663C5.94304 18.7676 6.02837 18.7833 6.09304 18.71V18.711ZM6.57304 19.431C6.66904 19.3563 6.66904 19.255 6.57304 19.127C6.48771 18.9883 6.39704 18.9563 6.30104 19.031C6.20504 19.0843 6.20504 19.1803 6.30104 19.319C6.39704 19.4576 6.48771 19.495 6.57304 19.431ZM7.24504 20.104C7.33037 20.0186 7.30904 19.9173 7.18104 19.8C7.05304 19.672 6.94637 19.656 6.86104 19.752C6.76504 19.8373 6.78637 19.9386 6.92504 20.056C7.05304 20.184 7.15971 20.1986 7.24504 20.1V20.104ZM8.15804 20.504C8.19004 20.3866 8.12071 20.3013 7.95004 20.248C7.79004 20.2053 7.68871 20.2426 7.64604 20.36C7.60337 20.4773 7.67271 20.5573 7.85404 20.6C8.01404 20.6646 8.11537 20.6326 8.15804 20.504ZM9.16704 20.584C9.16704 20.4453 9.07637 20.3866 8.89504 20.408C8.72437 20.408 8.63904 20.4666 8.63904 20.584C8.63904 20.7226 8.72971 20.7813 8.91104 20.76C9.08171 20.7606 9.16704 20.7013 9.16704 20.584ZM10.096 20.424C10.0747 20.3066 9.97871 20.2586 9.80804 20.28C9.63737 20.312 9.56271 20.392 9.58404 20.52C9.60537 20.648 9.70137 20.6906 9.87204 20.648C10.0427 20.6053 10.1167 20.5306 10.096 20.424Z" fill="#0A2B40"/>
</svg>
