<svg width="26" height="25" viewBox="0 0 26 25" fill="none" xmlns="http://www.w3.org/2000/svg">
<path d="M20.0757 0.5H6.79443C3.55839 0.5 0.935059 3.0184 0.935059 6.125V18.875C0.935059 21.9816 3.55839 24.5 6.79443 24.5H20.0757C23.3117 24.5 25.9351 21.9816 25.9351 18.875V6.125C25.9351 3.0184 23.3117 0.5 20.0757 0.5Z" fill="#0A2B40"/>
<path d="M20.0757 0.5H6.79443C3.55839 0.5 0.935059 3.0184 0.935059 6.125V18.875C0.935059 21.9816 3.55839 24.5 6.79443 24.5H20.0757C23.3117 24.5 25.9351 21.9816 25.9351 18.875V6.125C25.9351 3.0184 23.3117 0.5 20.0757 0.5Z" fill="#0A2B40"/>
<path d="M13.4359 3.125C10.7838 3.125 10.4509 3.13616 9.40928 3.18163C8.36963 3.22738 7.65996 3.38534 7.03906 3.61719C6.39668 3.85662 5.85186 4.17697 5.30908 4.69822C4.76582 5.21937 4.43213 5.74241 4.18193 6.35881C3.93975 6.95506 3.775 7.63662 3.72822 8.63422C3.68164 9.63425 3.66943 9.95394 3.66943 12.5001C3.66943 15.0463 3.68115 15.3648 3.72842 16.3647C3.77627 17.3628 3.94082 18.0441 4.18213 18.6402C4.43174 19.2568 4.76543 19.7799 5.3084 20.3009C5.85107 20.8225 6.3959 21.1436 7.03779 21.383C7.65918 21.6148 8.36895 21.7728 9.4084 21.8186C10.4501 21.864 10.7827 21.8752 13.4348 21.8752C16.0872 21.8752 16.419 21.864 17.4606 21.8186C18.5003 21.7728 19.2107 21.6148 19.8321 21.383C20.4742 21.1436 21.0183 20.8225 21.5608 20.3009C22.1041 19.7799 22.4377 19.2568 22.688 18.6404C22.928 18.0441 23.0929 17.3626 23.1417 16.3649C23.1885 15.365 23.2007 15.0463 23.2007 12.5001C23.2007 9.95394 23.1885 9.63444 23.1417 8.63441C23.0929 7.63634 22.928 6.95516 22.688 6.35909C22.4377 5.74241 22.1041 5.21937 21.5608 4.69822C21.0177 4.17678 20.4744 3.85644 19.8315 3.61728C19.209 3.38534 18.4989 3.22728 17.4593 3.18163C16.4176 3.13616 16.0859 3.125 13.4329 3.125H13.4359ZM12.5599 4.81447C12.8199 4.81409 13.1101 4.81447 13.4359 4.81447C16.0435 4.81447 16.3524 4.82347 17.3821 4.86838C18.3343 4.91019 18.8511 5.06291 19.1953 5.19125C19.6511 5.36112 19.976 5.56428 20.3176 5.8925C20.6594 6.22062 20.8709 6.53309 21.0483 6.97062C21.182 7.30062 21.3413 7.79675 21.3847 8.71081C21.4314 9.69913 21.4416 9.99594 21.4416 12.4979C21.4416 14.9999 21.4314 15.2968 21.3847 16.2851C21.3411 17.1991 21.182 17.6952 21.0483 18.0253C20.8714 18.4629 20.6594 18.7744 20.3176 19.1023C19.9758 19.4305 19.6513 19.6335 19.1953 19.8035C18.8515 19.9324 18.3343 20.0848 17.3821 20.1266C16.3526 20.1715 16.0435 20.1812 13.4359 20.1812C10.8283 20.1812 10.5192 20.1715 9.48984 20.1266C8.53769 20.0844 8.0209 19.9317 7.67637 19.8033C7.2207 19.6333 6.89512 19.4303 6.55332 19.1022C6.21152 18.774 6 18.4623 5.82256 18.0246C5.68887 17.6945 5.52959 17.1984 5.48623 16.2843C5.43945 15.296 5.43008 14.9992 5.43008 12.4956C5.43008 9.992 5.43945 9.69678 5.48623 8.70847C5.52979 7.79441 5.68887 7.29828 5.82256 6.96781C5.99961 6.53028 6.21152 6.21781 6.55342 5.88969C6.89531 5.56156 7.2207 5.35841 7.67646 5.18816C8.0207 5.05925 8.53769 4.90691 9.48984 4.86491C10.3907 4.82581 10.7398 4.81409 12.5599 4.81212V4.81447ZM18.6488 6.37109C18.0019 6.37109 17.477 6.87453 17.477 7.49572C17.477 8.11681 18.0019 8.62072 18.6488 8.62072C19.2958 8.62072 19.8207 8.11681 19.8207 7.49572C19.8207 6.87463 19.2958 6.37072 18.6488 6.37072V6.37109ZM13.4359 7.68556C10.6664 7.68556 8.4209 9.84125 8.4209 12.5001C8.4209 15.1589 10.6664 17.3136 13.4359 17.3136C16.2056 17.3136 18.4503 15.1589 18.4503 12.5001C18.4503 9.84134 16.2054 7.68556 13.4357 7.68556H13.4359ZM13.4359 9.37503C15.2337 9.37503 16.6912 10.7741 16.6912 12.5001C16.6912 14.2259 15.2337 15.6252 13.4359 15.6252C11.6382 15.6252 10.1808 14.2259 10.1808 12.5001C10.1808 10.7741 11.6381 9.37503 13.4359 9.37503Z" fill="#C5D5D7"/>
</svg>
