<svg width="26" height="25" viewBox="0 0 26 25" fill="none" xmlns="http://www.w3.org/2000/svg">
<path d="M20.0743 0.75H6.79309C3.55705 0.75 0.933716 3.2684 0.933716 6.375V19.125C0.933716 22.2316 3.55705 24.75 6.79309 24.75H20.0743C23.3104 24.75 25.9337 22.2316 25.9337 19.125V6.375C25.9337 3.2684 23.3104 0.75 20.0743 0.75Z" fill="white"/>
<path d="M20.0743 0.75H6.79309C3.55705 0.75 0.933716 3.2684 0.933716 6.375V19.125C0.933716 22.2316 3.55705 24.75 6.79309 24.75H20.0743C23.3104 24.75 25.9337 22.2316 25.9337 19.125V6.375C25.9337 3.2684 23.3104 0.75 20.0743 0.75Z" fill="white"/>
<path d="M13.4346 3.375C10.7824 3.375 10.4495 3.38616 9.40793 3.43163C8.36829 3.47738 7.65862 3.63534 7.03772 3.86719C6.39534 4.10662 5.85051 4.42697 5.30774 4.94822C4.76448 5.46937 4.43079 5.99241 4.18059 6.60881C3.9384 7.20506 3.77366 7.88662 3.72688 8.88422C3.6803 9.88425 3.66809 10.2039 3.66809 12.7501C3.66809 15.2963 3.67981 15.6148 3.72708 16.6147C3.77493 17.6128 3.93948 18.2941 4.18079 18.8902C4.4304 19.5068 4.76409 20.0299 5.30706 20.5509C5.84973 21.0725 6.39456 21.3936 7.03645 21.633C7.65784 21.8648 8.3676 22.0228 9.40706 22.0686C10.4488 22.114 10.7814 22.1252 13.4334 22.1252C16.0859 22.1252 16.4177 22.114 17.4593 22.0686C18.499 22.0228 19.2094 21.8648 19.8308 21.633C20.4729 21.3936 21.0169 21.0725 21.5595 20.5509C22.1028 20.0299 22.4364 19.5068 22.6866 18.8904C22.9267 18.2941 23.0915 17.6126 23.1404 16.6149C23.1871 15.615 23.1993 15.2963 23.1993 12.7501C23.1993 10.2039 23.1871 9.88444 23.1404 8.88441C23.0915 7.88634 22.9267 7.20516 22.6866 6.60909C22.4364 5.99241 22.1028 5.46937 21.5595 4.94822C21.0163 4.42678 20.4731 4.10644 19.8302 3.86728C19.2076 3.63534 18.4976 3.47728 17.4579 3.43163C16.4162 3.38616 16.0846 3.375 13.4316 3.375H13.4346ZM12.5585 5.06447C12.8186 5.06409 13.1087 5.06447 13.4346 5.06447C16.0421 5.06447 16.3511 5.07347 17.3808 5.11838C18.3329 5.16019 18.8497 5.31291 19.194 5.44125C19.6497 5.61112 19.9746 5.81428 20.3162 6.1425C20.658 6.47062 20.8696 6.78309 21.047 7.22062C21.1807 7.55062 21.34 8.04675 21.3833 8.96081C21.4301 9.94913 21.4403 10.2459 21.4403 12.7479C21.4403 15.2499 21.4301 15.5468 21.3833 16.5351C21.3398 17.4491 21.1807 17.9452 21.047 18.2753C20.87 18.7129 20.658 19.0244 20.3162 19.3523C19.9744 19.6805 19.6499 19.8835 19.194 20.0535C18.8501 20.1824 18.3329 20.3348 17.3808 20.3766C16.3513 20.4215 16.0421 20.4312 13.4346 20.4312C10.827 20.4312 10.5179 20.4215 9.4885 20.3766C8.53635 20.3344 8.01956 20.1817 7.67502 20.0533C7.21936 19.8833 6.89377 19.6803 6.55198 19.3522C6.21018 19.024 5.99866 18.7123 5.82122 18.2746C5.68752 17.9445 5.52825 17.4484 5.48489 16.5343C5.43811 15.546 5.42874 15.2492 5.42874 12.7456C5.42874 10.242 5.43811 9.94678 5.48489 8.95847C5.52844 8.04441 5.68752 7.54828 5.82122 7.21781C5.99827 6.78028 6.21018 6.46781 6.55208 6.13969C6.89397 5.81156 7.21936 5.60841 7.67512 5.43816C8.01936 5.30925 8.53635 5.15691 9.4885 5.11491C10.3894 5.07581 10.7385 5.06409 12.5585 5.06212V5.06447ZM18.6475 6.62109C18.0005 6.62109 17.4756 7.12453 17.4756 7.74572C17.4756 8.36681 18.0005 8.87072 18.6475 8.87072C19.2945 8.87072 19.8194 8.36681 19.8194 7.74572C19.8194 7.12463 19.2945 6.62072 18.6475 6.62072V6.62109ZM13.4346 7.93556C10.6651 7.93556 8.41956 10.0913 8.41956 12.7501C8.41956 15.4089 10.6651 17.5636 13.4346 17.5636C16.2042 17.5636 18.449 15.4089 18.449 12.7501C18.449 10.0913 16.204 7.93556 13.4344 7.93556H13.4346ZM13.4346 9.62503C15.2323 9.62503 16.6899 11.0241 16.6899 12.7501C16.6899 14.4759 15.2323 15.8752 13.4346 15.8752C11.6368 15.8752 10.1794 14.4759 10.1794 12.7501C10.1794 11.0241 11.6367 9.62503 13.4346 9.62503Z" fill="#1A6EA2"/>
</svg>
