<svg width="26" height="25" viewBox="0 0 26 25" fill="none" xmlns="http://www.w3.org/2000/svg">
<path d="M23.5913 1.06246H3.27881C2.81793 1.05796 2.37402 1.22916 2.04447 1.5385C1.71492 1.84783 1.52666 2.27003 1.521 2.71246V22.2912C1.52769 22.733 1.7164 23.1542 2.04583 23.4628C2.37527 23.7713 2.8186 23.942 3.27881 23.9375H23.5913C24.0522 23.941 24.4958 23.7692 24.8252 23.4597C25.1546 23.1501 25.3429 22.728 25.3491 22.2856V2.70684C25.3409 2.26571 25.1516 1.84552 24.8225 1.5376C24.4933 1.22969 24.0509 1.05894 23.5913 1.06246Z" fill="#0A2B40"/>
<path d="M5.04834 9.63684H8.58545V20.5625H5.04834V9.63684ZM6.81787 4.19934C7.22356 4.19934 7.62014 4.31485 7.95743 4.53127C8.29472 4.74768 8.55757 5.05527 8.71273 5.41512C8.86789 5.77497 8.90839 6.17091 8.8291 6.55286C8.74981 6.93482 8.5543 7.28561 8.2673 7.56087C7.9803 7.83613 7.6147 8.02349 7.21676 8.09924C6.81882 8.17499 6.40641 8.13574 6.03172 7.98644C5.65702 7.83714 5.33687 7.58451 5.11176 7.2605C4.88665 6.9365 4.7667 6.55568 4.76709 6.16622C4.76761 5.6444 4.9839 5.14412 5.36844 4.77531C5.75298 4.4065 6.27431 4.19934 6.81787 4.19934ZM10.8042 9.63684H14.1948V11.1368H14.2417C14.7144 10.2781 15.8667 9.37247 17.5874 9.37247C21.1694 9.36497 21.8335 11.6281 21.8335 14.5625V20.5625H18.2964V15.2468C18.2964 13.9812 18.273 12.3518 16.4585 12.3518C14.644 12.3518 14.3354 13.7318 14.3354 15.1643V20.5625H10.8042V9.63684Z" fill="#C5D5D7"/>
</svg>
