<svg width="26" height="25" viewBox="0 0 26 25" fill="none" xmlns="http://www.w3.org/2000/svg">
<path d="M23.59 1.31246H3.27747C2.81659 1.30796 2.37267 1.47916 2.04313 1.7885C1.71358 2.09783 1.52532 2.52003 1.51965 2.96246V22.5412C1.52634 22.983 1.71506 23.4042 2.04449 23.7128C2.37393 24.0213 2.81726 24.192 3.27747 24.1875H23.59C24.0509 24.191 24.4945 24.0192 24.8239 23.7097C25.1532 23.4001 25.3416 22.978 25.3478 22.5356V2.95684C25.3396 2.51571 25.1503 2.09552 24.8211 1.7876C24.492 1.47969 24.0495 1.30894 23.59 1.31246Z" fill="white"/>
<path d="M5.047 9.88684H8.58411V20.8125H5.047V9.88684ZM6.81653 4.44934C7.22222 4.44934 7.61879 4.56485 7.95608 4.78127C8.29338 4.99768 8.55623 5.30527 8.71139 5.66512C8.86655 6.02497 8.90705 6.42091 8.82776 6.80286C8.74847 7.18482 8.55296 7.53561 8.26596 7.81087C7.97896 8.08613 7.61336 8.27349 7.21542 8.34924C6.81748 8.42499 6.40507 8.38574 6.03037 8.23644C5.65568 8.08714 5.33552 7.83451 5.11042 7.5105C4.88531 7.1865 4.76536 6.80568 4.76575 6.41622C4.76627 5.8944 4.98256 5.39412 5.3671 5.02531C5.75164 4.6565 6.27297 4.44934 6.81653 4.44934ZM10.8029 9.88684H14.1935V11.3868H14.2404C14.713 10.5281 15.8654 9.62247 17.5861 9.62247C21.1681 9.61497 21.8322 11.8781 21.8322 14.8125V20.8125H18.295V15.4968C18.295 14.2312 18.2716 12.6018 16.4572 12.6018C14.6427 12.6018 14.3341 13.9818 14.3341 15.4143V20.8125H10.8029V9.88684Z" fill="#1A6EA2"/>
</svg>
